<svg id="visual" viewBox="0 0 900 600" width="900" height="600" xmlns="http://www.w3.org/2000/svg" xmlns:xlink="http://www.w3.org/1999/xlink" version="1.1"><path d="M0 139L82 139L82 109L164 109L164 115L245 115L245 91L327 91L327 79L409 79L409 121L491 121L491 61L573 61L573 73L655 73L655 133L736 133L736 55L818 55L818 67L900 67L900 49L900 0L900 0L818 0L818 0L736 0L736 0L655 0L655 0L573 0L573 0L491 0L491 0L409 0L409 0L327 0L327 0L245 0L245 0L164 0L164 0L82 0L82 0L0 0Z" fill="#c0c0c0"></path><path d="M0 199L82 199L82 211L164 211L164 187L245 187L245 151L327 151L327 181L409 181L409 169L491 169L491 133L573 133L573 193L655 193L655 217L736 217L736 175L818 175L818 145L900 145L900 151L900 47L900 65L818 65L818 53L736 53L736 131L655 131L655 71L573 71L573 59L491 59L491 119L409 119L409 77L327 77L327 89L245 89L245 113L164 113L164 107L82 107L82 137L0 137Z" fill="#8d6d62"></path><path d="M0 409L82 409L82 397L164 397L164 415L245 415L245 307L327 307L327 355L409 355L409 403L491 403L491 325L573 325L573 403L655 403L655 469L736 469L736 361L818 361L818 373L900 373L900 313L900 149L900 143L818 143L818 173L736 173L736 215L655 215L655 191L573 191L573 131L491 131L491 167L409 167L409 179L327 179L327 149L245 149L245 185L164 185L164 209L82 209L82 197L0 197Z" fill="#6c3f30"></path><path d="M0 511L82 511L82 451L164 451L164 505L245 505L245 403L327 403L327 433L409 433L409 469L491 469L491 415L573 415L573 481L655 481L655 517L736 517L736 451L818 451L818 433L900 433L900 391L900 311L900 371L818 371L818 359L736 359L736 467L655 467L655 401L573 401L573 323L491 323L491 401L409 401L409 353L327 353L327 305L245 305L245 413L164 413L164 395L82 395L82 407L0 407Z" fill="#8d6d62"></path><path d="M0 601L82 601L82 601L164 601L164 601L245 601L245 601L327 601L327 601L409 601L409 601L491 601L491 601L573 601L573 601L655 601L655 601L736 601L736 601L818 601L818 601L900 601L900 601L900 389L900 431L818 431L818 449L736 449L736 515L655 515L655 479L573 479L573 413L491 413L491 467L409 467L409 431L327 431L327 401L245 401L245 503L164 503L164 449L82 449L82 509L0 509Z" fill="#c0c0c0"></path></svg>