<svg id="visual" viewBox="0 0 900 600" width="900" height="600" xmlns="http://www.w3.org/2000/svg" xmlns:xlink="http://www.w3.org/1999/xlink" version="1.1"><rect x="0" y="0" width="900" height="600" fill="#C0C0C0"></rect><path d="M0 424L129 435L257 367L386 401L514 402L643 359L771 427L900 379L900 601L771 601L643 601L514 601L386 601L257 601L129 601L0 601Z" fill="#f8e382"></path><path d="M0 451L129 449L257 454L386 412L514 398L643 458L771 439L900 473L900 601L771 601L643 601L514 601L386 601L257 601L129 601L0 601Z" fill="#d6a56b"></path><path d="M0 450L129 446L257 501L386 473L514 441L643 454L771 449L900 504L900 601L771 601L643 601L514 601L386 601L257 601L129 601L0 601Z" fill="#a3715a"></path><path d="M0 490L129 514L257 529L386 507L514 492L643 539L771 482L900 512L900 601L771 601L643 601L514 601L386 601L257 601L129 601L0 601Z" fill="#664744"></path><path d="M0 563L129 531L257 534L386 545L514 551L643 549L771 553L900 540L900 601L771 601L643 601L514 601L386 601L257 601L129 601L0 601Z" fill="#292324"></path></svg>